<svg viewBox="0 0 800 500" xmlns="http://www.w3.org/2000/svg">
  <defs>
    <linearGradient id="g2" x1="0" y1="1" x2="1" y2="0">
      <stop offset="0" stop-color="#0E3B2C"/>
      <stop offset="1" stop-color="#2F8F5B"/>
    </linearGradient>
  </defs>
  <rect width="800" height="500" fill="url(#g2)"/>
  <g stroke="#4CAE78" stroke-width="1.4" opacity="0.55">
    <line x1="140" y1="150" x2="300" y2="110"/>
    <line x1="300" y1="110" x2="470" y2="170"/>
    <line x1="470" y1="170" x2="640" y2="120"/>
    <line x1="300" y1="110" x2="330" y2="260"/>
    <line x1="470" y1="170" x2="330" y2="260"/>
    <line x1="330" y1="260" x2="520" y2="330"/>
    <line x1="470" y1="170" x2="520" y2="330"/>
    <line x1="140" y1="150" x2="200" y2="300"/>
    <line x1="200" y1="300" x2="330" y2="260"/>
    <line x1="520" y1="330" x2="660" y2="290"/>
    <line x1="640" y1="120" x2="660" y2="290"/>
  </g>
  <g fill="#EAF2EC">
    <circle cx="140" cy="150" r="7"/>
    <circle cx="300" cy="110" r="9"/>
    <circle cx="470" cy="170" r="11"/>
    <circle cx="640" cy="120" r="7"/>
    <circle cx="330" cy="260" r="13" fill="#4CAE78"/>
    <circle cx="520" cy="330" r="9"/>
    <circle cx="200" cy="300" r="7"/>
    <circle cx="660" cy="290" r="7"/>
  </g>
  <g opacity="0.9">
    <rect x="270" y="380" width="260" height="64" rx="32" fill="#0F1712" opacity="0.3"/>
    <text x="400" y="420" text-anchor="middle" font-family="'Space Grotesk', sans-serif" font-size="20" fill="#FAFAF8">assist, not autopilot</text>
  </g>
</svg>
